<mxfile host="app.diagrams.net" modified="2023-09-05T23:35:57.624Z" agent="Mozilla/5.0 (Macintosh; Intel Mac OS X 10_15_7) AppleWebKit/537.36 (KHTML, like Gecko) Chrome/116.0.0.0 Safari/537.36" version="21.7.2" etag="Q8fxbqoYcmNz47Yx1JDW" type="github">
  <diagram name="Page-1" id="SVH-tC_iuOIIvj0m05Rd">
    <mxGraphModel>
      <root>
        <mxCell id="0" />
        <mxCell id="1" parent="0" />
      </root>
    </mxGraphModel>
  </diagram>
</mxfile>
